<svg width="14" height="14" viewBox="0 0 14 14" fill="none" xmlns="http://www.w3.org/2000/svg">
<g clip-path="url(#clip0_372_340)">
<path d="M6.93804 2.15962C8.47954 0.775619 10.8617 0.821556 12.3467 2.30925C13.8312 3.79759 13.8823 6.16792 12.5016 7.71402L6.93672 13.2868L1.37314 7.71402C-0.00758263 6.16792 0.0442603 3.79366 1.52801 2.30925C3.01439 0.823524 5.39194 0.77365 6.93804 2.15962ZM11.4175 3.23651C10.4332 2.25084 8.84506 2.21081 7.81477 3.13611L6.93869 3.92228L6.06196 3.13676C5.02839 2.21015 3.44357 2.25084 2.45659 3.23782C1.4788 4.21562 1.42958 5.78074 2.33059 6.81497L6.93738 11.429L11.5442 6.81563C12.4458 5.78074 12.3966 4.21759 11.4175 3.23651Z" fill="white"/>
</g>
<defs>
<clipPath id="clip0_372_340">
<rect width="13.125" height="13.125" fill="white" transform="translate(0.375 0.5)"/>
</clipPath>
</defs>
</svg>
