<?xml version="1.0" encoding="UTF-8" standalone="no"?>
<!DOCTYPE svg PUBLIC "-//W3C//DTD SVG 1.1//EN" "http://www.w3.org/Graphics/SVG/1.1/DTD/svg11.dtd">
<!-- Created with Vectornator (http://vectornator.io/) -->
<svg height="100%" stroke-miterlimit="10" style="fill-rule:nonzero;clip-rule:evenodd;stroke-linecap:round;stroke-linejoin:round;" version="1.1" viewBox="0 0 667 375" width="100%" xml:space="preserve" xmlns="http://www.w3.org/2000/svg" xmlns:vectornator="http://vectornator.io" xmlns:xlink="http://www.w3.org/1999/xlink">
<defs>
<clipPath id="TextBounds">
<rect height="362.718" transform="matrix(1 0 0 1 0 82.0908)" width="668.493" x="0" y="0"/>
</clipPath>
<clipPath id="TextBounds_2">
<rect height="66.8668" transform="matrix(1 0 0 1 153.654 211.696)" width="347.79" x="0" y="0"/>
</clipPath>
<filter color-interpolation-filters="sRGB" filterUnits="userSpaceOnUse" height="45.5689" id="Filter" width="332.564" x="155.153" y="215.697">
<feDropShadow dx="2.93444" dy="-0.623735" flood-color="#000000" flood-opacity="0.143" in="SourceGraphic" result="Shadow" stdDeviation="0"/>
</filter>
<clipPath id="TextBounds_3">
<rect height="1" transform="matrix(1 0 0 1 774.829 101.977)" width="0" x="0" y="0"/>
</clipPath>
</defs>
<clipPath id="ArtboardFrame">
<rect height="375" width="667" x="0" y="0"/>
</clipPath>
<g clip-path="url(#ArtboardFrame)" id="Слой-1" vectornator:layerName="Слой 1">
<g fill="#141414" opacity="1" stroke="none">
<path clip-path="url(#TextBounds)" d="M5.13281 119.296L22.0103 118.464C36.0874 117.757 45.5731 117.404 50.4673 117.404C65.7049 117.404 77.5872 119.725 86.1143 124.367C94.6413 129.009 100.986 135.303 105.149 143.25C109.311 151.197 111.393 160.367 111.393 170.761C111.393 178.279 110.257 185.154 107.987 191.385C105.716 197.616 102.601 202.788 98.6399 206.9C94.6791 211.012 90.0876 214.141 84.8655 216.285C79.6433 218.429 74.686 219.766 69.9937 220.296C65.3013 220.826 58.6916 221.091 50.1646 221.091L4.67871 221.091L4.67871 217.609L8.91699 217.609C13.3066 217.609 16.3466 217.054 18.0369 215.944C19.7271 214.834 20.8119 213.106 21.2913 210.76C21.7706 208.414 22.0103 202.952 22.0103 194.374L22.0103 144.877C22.0103 136.704 21.7706 131.418 21.2913 129.022C20.8119 126.625 19.8028 124.985 18.2639 124.102C16.725 123.219 13.3571 122.778 8.16016 122.778L5.13281 122.778L5.13281 119.296ZM36.7686 121.416L36.7686 189.985C36.7686 200.126 36.9578 206.66 37.3362 209.587C37.7146 212.513 38.8499 214.569 40.7419 215.755C42.634 216.941 46.6326 217.534 52.7378 217.534C61.6685 217.534 69.0098 216.31 74.7617 213.863C80.5137 211.416 85.3196 206.597 89.1794 199.407C93.0393 192.218 94.9692 183.047 94.9692 171.896C94.9692 163.218 93.8466 155.473 91.6013 148.662C89.356 141.85 86.1395 136.313 81.9517 132.049C77.7638 127.786 73.1219 124.884 68.0259 123.345C62.9299 121.807 56.3958 121.037 48.4238 121.037C44.5892 121.037 40.7041 121.163 36.7686 121.416Z"/>
<path clip-path="url(#TextBounds)" d="M232.032 221.091L204.408 221.091C199.514 217.66 192.021 208.679 181.93 194.147C178.701 189.506 175.345 185.053 171.864 180.789C168.382 176.526 165.986 173.927 164.674 172.994C163.362 172.06 161.319 171.594 158.543 171.594L154.457 171.594L154.457 194.374C154.457 202.447 154.646 207.733 155.024 210.23C155.403 212.728 156.412 214.582 158.052 215.793C159.691 217.004 162.832 217.609 167.474 217.609L172.394 217.609L172.394 221.091L123.275 221.091L123.275 217.609L126.605 217.609C130.995 217.609 134.035 217.054 135.725 215.944C137.415 214.834 138.487 213.106 138.941 210.76C139.396 208.414 139.623 202.952 139.623 194.374L139.623 144.045C139.623 135.871 139.396 130.598 138.941 128.227C138.487 125.856 137.478 124.216 135.914 123.308C134.35 122.399 130.969 121.945 125.772 121.945L124.032 121.945L124.032 118.464L138.714 117.707C148.503 117.253 156.273 117.026 162.025 117.026C171.813 117.026 179.773 117.934 185.903 119.75C192.033 121.567 196.991 124.544 200.775 128.681C204.559 132.819 206.451 137.763 206.451 143.515C206.451 150.226 203.979 155.952 199.034 160.695C194.09 165.438 186.824 168.39 177.237 169.55C181.526 171.619 188.438 179.086 197.975 191.953C205.745 202.397 211.85 209.234 216.29 212.463C220.73 215.692 225.978 217.408 232.032 217.609L232.032 221.091ZM154.457 168.112C158.241 168.011 162.151 167.86 166.188 167.658C170.224 167.456 173.731 166.901 176.708 165.993C179.684 165.085 182.094 163.76 183.935 162.02C185.777 160.279 187.228 157.996 188.287 155.17C189.347 152.345 189.876 148.863 189.876 144.726C189.876 137.511 188.073 131.734 184.465 127.395C180.858 123.055 172.999 120.886 160.89 120.886C159.023 120.886 156.878 120.987 154.457 121.188L154.457 168.112Z"/>
<path clip-path="url(#TextBounds)" d="M320.809 189.152L324.442 189.152L322.247 221.091L237.254 221.091L237.254 217.609L239.374 217.609C244.47 217.609 247.762 216.928 249.25 215.566C250.739 214.204 251.685 212.475 252.088 210.382C252.492 208.288 252.694 202.952 252.694 194.374L252.694 144.045C252.694 136.224 252.479 131.078 252.051 128.605C251.622 126.133 250.638 124.405 249.099 123.421C247.56 122.437 244.318 121.945 239.374 121.945L239.374 118.464L312.711 118.464L315.133 144.045L311.576 144.045C309.961 136.88 307.981 131.797 305.635 128.795C303.288 125.793 300.501 123.9 297.271 123.118C294.042 122.336 288.845 121.945 281.681 121.945L267.452 121.945L267.452 165.009L278.351 165.009C283.346 165.009 286.84 164.58 288.833 163.723C290.826 162.865 292.138 161.566 292.768 159.825C293.399 158.084 293.714 154.691 293.714 149.645L297.271 149.645L297.271 184.763L293.714 184.763C293.714 179.061 293.235 175.239 292.276 173.297C291.318 171.354 289.918 170.093 288.076 169.512C286.234 168.932 283.119 168.642 278.729 168.642L267.452 168.642L267.452 192.937C267.452 205.096 268.234 212.248 269.798 214.393C271.362 216.537 275.576 217.609 282.438 217.609L290.082 217.609C295.48 217.609 299.92 216.916 303.402 215.528C306.883 214.141 310.201 211.29 313.354 206.976C316.508 202.662 318.993 196.721 320.809 189.152Z"/>
<path clip-path="url(#TextBounds)" d="M396.114 183.249L357.137 183.249L354.488 189.758C350.553 199.193 348.585 205.349 348.585 208.225C348.585 211.302 349.632 213.636 351.726 215.225C353.82 216.815 356.507 217.609 359.786 217.609L359.786 221.091L329.286 221.091L329.286 217.609C333.827 216.903 337.207 215.301 339.427 212.803C341.647 210.306 344.321 205.046 347.45 197.023C347.702 196.267 348.913 193.34 351.083 188.244L380.902 117.026L383.854 117.026L418.138 198.537L422.831 209.284C423.89 211.706 425.316 213.611 427.107 214.998C428.898 216.386 431.585 217.256 435.167 217.609L435.167 221.091L394.828 221.091L394.828 217.609C399.772 217.609 403.115 217.244 404.856 216.512C406.596 215.78 407.467 214.33 407.467 212.16C407.467 211.05 406.306 207.745 403.985 202.246L396.114 183.249ZM394.828 179.843L376.664 136.098L358.575 179.843L394.828 179.843Z"/>
<path clip-path="url(#TextBounds)" d="M506.083 203.381L543.47 118.464L574.955 118.464L574.955 121.945L571.17 121.945C566.125 121.945 562.82 122.362 561.256 123.194C559.692 124.027 558.645 125.578 558.115 127.849C557.585 130.119 557.32 135.518 557.32 144.045L557.32 194.374C557.32 202.447 557.522 207.733 557.926 210.23C558.329 212.728 559.351 214.582 560.991 215.793C562.631 217.004 565.772 217.609 570.414 217.609L574.955 217.609L574.955 221.091L525.912 221.091L525.912 217.609L529.544 217.609C533.884 217.609 536.898 217.054 538.589 215.944C540.279 214.834 541.364 213.106 541.843 210.76C542.322 208.414 542.562 202.952 542.562 194.374L542.562 129.06L501.92 221.091L498.363 221.091L457.418 129.06L457.418 189.152C457.418 197.377 457.67 202.977 458.175 205.954C458.679 208.931 460.243 211.542 462.867 213.787C465.491 216.033 469.174 217.307 473.917 217.609L473.917 221.091L437.21 221.091L437.21 217.609C441.6 217.357 445.17 216.159 447.92 214.014C450.67 211.87 452.347 209.234 452.953 206.105C453.558 202.977 453.861 197.175 453.861 188.698L453.861 144.045C453.861 135.871 453.621 130.598 453.142 128.227C452.663 125.856 451.653 124.216 450.115 123.308C448.576 122.399 445.208 121.945 440.011 121.945L437.21 121.945L437.21 118.464L468.468 118.464L506.083 203.381Z"/>
<path clip-path="url(#TextBounds)" d="M586.837 220.031L586.837 187.033L590.621 187.033C594.91 208.527 605.077 219.274 621.122 219.274C628.337 219.274 633.925 217.218 637.885 213.106C641.846 208.994 643.827 204.39 643.827 199.294C643.827 194.147 642.086 189.833 638.604 186.352C635.123 182.921 628.766 179.238 619.532 175.302C611.308 171.77 605.102 168.68 600.914 166.031C596.726 163.382 593.459 159.938 591.113 155.7C588.767 151.462 587.594 146.946 587.594 142.153C587.594 134.837 590.129 128.744 595.2 123.875C600.271 119.006 606.691 116.572 614.461 116.572C618.801 116.572 622.888 117.278 626.722 118.691C630.557 120.104 634.492 123.03 638.529 127.47C640.85 124.695 642.162 121.693 642.464 118.464L645.794 118.464L645.794 145.332L642.464 145.332C640.547 137.511 637.154 131.355 632.285 126.865C627.416 122.374 621.778 120.129 615.37 120.129C609.264 120.129 604.787 121.781 601.936 125.086C599.085 128.391 597.66 132.011 597.66 135.947C597.66 140.69 599.451 144.701 603.033 147.98C606.565 151.311 612.948 155.044 622.181 159.182C631.011 163.117 637.431 166.283 641.443 168.68C645.454 171.077 648.67 174.394 651.092 178.632C653.514 182.871 654.725 187.765 654.725 193.315C654.725 202.094 651.799 209.234 645.946 214.733C640.093 220.233 632.272 222.983 622.484 222.983C611.232 222.983 601.847 218.669 594.33 210.041C592.665 212.412 591.428 215.742 590.621 220.031L586.837 220.031Z"/>
</g>
<g fill="#e0bea2" filter="url(#Filter)" stroke="none" vectornator:shadowAngle="-0.20944" vectornator:shadowColor="#000000" vectornator:shadowOffset="3" vectornator:shadowOpacity="0.143" vectornator:shadowRadius="0">
<path clip-path="url(#TextBounds_2)" d="M160.398 260.524C165.159 262.456 171.3 260.731 176.199 253.969C180.822 247.552 189.378 231.682 191.793 226.369C193.587 222.367 193.518 219.262 192.69 217.813C192.207 217.054 191.586 216.847 191.034 217.744C187.239 223.747 179.718 237.409 175.923 244.792C171.093 254.107 165.573 260.179 161.364 258.523C159.363 257.764 159.156 255.142 159.984 251.623C161.709 244.309 168.678 234.028 172.059 227.473C174.75 222.298 174.474 219.607 173.37 217.882C172.887 217.123 172.266 216.985 171.714 217.813C165.435 227.335 157.638 240.307 155.706 248.104C153.843 255.694 157.017 259.144 160.398 260.524Z"/>
<path clip-path="url(#TextBounds_2)" d="M215.897 245.206C219.278 250.105 222.314 255.073 224.936 260.179C225.281 260.8 225.764 260.8 226.178 260.317C227.213 259.006 227.834 256.591 226.178 252.658C225.35 250.726 223.487 247.552 221.279 244.033C230.594 237.478 239.978 229.06 243.083 224.851C245.567 221.47 245.636 219.124 245.222 217.606C244.946 216.985 244.394 216.916 243.911 217.468C237.356 224.575 227.696 233.2 218.657 239.962C221.141 235.339 223.418 231.268 225.212 228.025C228.041 222.85 227.696 219.538 226.799 217.951C226.247 217.054 225.764 216.985 225.143 217.813C220.934 223.678 209.066 247.069 207.341 252.934C206.099 257.074 206.651 259.075 207.686 260.524C208.1 261.076 208.514 260.938 208.79 260.317C211.067 255.004 213.482 249.829 215.897 245.206Z"/>
<path clip-path="url(#TextBounds_2)" d="M267.256 246.241C270.499 249.829 274.087 254.314 278.641 260.524C279.055 261.145 279.4 260.938 279.745 260.386C280.642 259.006 280.366 256.66 279.4 254.797C277.951 251.899 275.467 248.587 272.845 245.344C280.504 243.55 287.956 239.203 291.682 234.235C294.304 230.716 295.27 226.507 293.821 222.367C292.165 217.675 289.129 216.64 285.61 216.778C280.987 216.985 275.812 219.814 270.016 220.504C269.119 220.642 268.912 220.987 269.257 221.677C270.085 223.195 271.327 224.23 273.673 224.437C267.601 233.959 261.115 247.069 259.39 253.348C258.355 257.074 259.045 259.144 260.011 260.179C260.494 260.662 260.839 260.593 261.115 259.903C263.392 254.245 265.393 249.898 267.256 246.241ZM277.882 224.023C282.436 222.781 289.336 219.193 290.854 223.057C292.855 227.956 285.058 238.03 269.809 241.411C271.672 238.03 273.397 235.132 275.26 231.82C277.123 228.37 277.882 225.955 277.882 224.023Z"/>
<path clip-path="url(#TextBounds_2)" d="M328.896 248.863C328.689 250.933 328.62 252.727 328.62 254.107C328.689 258.04 329.793 259.765 331.173 260.386C331.794 260.662 332.208 260.455 332.208 259.765C332.346 256.108 332.76 252.313 333.243 248.725C334.416 248.794 335.382 248.932 336.21 249.139C336.831 249.346 337.107 249.139 336.969 248.518C336.693 247.069 335.934 245.689 333.864 244.999C335.175 237.409 337.107 230.371 338.901 224.92C339.522 223.057 339.591 221.539 338.901 219.883C338.211 218.158 338.004 218.02 337.314 217.054C336.624 216.088 335.934 216.088 334.83 216.985C327.516 222.988 317.925 236.65 312.543 246.034C311.439 245.965 310.404 245.827 309.438 245.689C308.403 245.551 308.265 245.827 308.61 246.724C308.817 247.207 309.369 248.242 310.887 249.07C310.059 250.588 309.438 251.968 309.024 253.003C307.575 256.867 307.851 258.937 308.679 260.041C309.024 260.524 309.645 260.524 309.921 259.903C311.301 256.867 313.095 253.486 315.165 249.967C318.408 250.036 323.997 249.208 328.896 248.863ZM317.787 245.827C323.031 237.616 329.31 229.267 334.554 223.402C332.415 228.784 330.483 237.478 329.448 244.654C326.205 244.723 321.996 245.482 317.787 245.827Z"/>
<path clip-path="url(#TextBounds_2)" d="M379.358 217.192C373.769 225.265 364.04 243.067 360.659 252.451C359.141 256.66 359.969 259.075 360.935 260.11C361.487 260.731 361.763 260.662 362.039 259.972C367.076 248.656 374.666 235.339 378.944 227.818C381.911 222.574 381.98 219.262 381.014 217.261C380.6 216.433 379.979 216.295 379.358 217.192Z"/>
<path clip-path="url(#TextBounds_2)" d="M411.88 230.095C410.638 239.893 410.362 249.208 410.707 253.417C411.052 257.833 412.018 259.489 414.088 260.593C414.847 261.007 415.192 260.869 415.468 260.179C419.539 251.002 428.302 234.442 432.373 227.68C435.478 222.505 435.547 219.745 434.512 217.675C434.098 216.916 433.477 216.709 432.925 217.537C427.75 225.541 419.815 239.962 415.123 250.588C415.606 240.928 416.296 232.303 417.4 225.748C418.159 220.987 417.607 219.055 415.054 217.192C414.364 216.709 413.881 216.778 413.26 217.813C407.809 226.99 398.77 243.343 395.389 252.658C394.009 256.384 394.561 259.075 395.734 260.386C396.217 260.938 396.7 260.8 396.907 260.11C399.667 251.83 406.705 238.996 411.88 230.095Z"/>
<path clip-path="url(#TextBounds_2)" d="M464.412 223.471C458.616 232.441 451.716 245.275 448.542 253.762C447.852 255.625 447.852 256.522 448.473 257.695C448.956 258.592 449.37 259.627 449.922 260.248C450.75 261.283 451.509 261.283 452.82 260.938C456.684 259.903 464.205 258.109 468.069 258.178C468.897 258.178 468.966 257.764 468.759 257.143C468 255.073 466.275 253.969 462.894 254.107C460.065 254.245 455.511 255.211 452.199 256.246C453.648 253.003 455.511 249.208 457.512 245.344C461.376 244.378 466.551 243.412 470.277 243.412C471.174 243.412 471.174 242.998 470.967 242.377C470.277 240.238 468.759 239.134 465.309 239.272C464.067 239.341 462.273 239.479 460.41 239.824C463.791 233.683 467.172 227.68 469.932 223.54C474.141 222.85 478.971 221.608 483.939 221.677C484.767 221.815 484.905 221.332 484.698 220.78C483.87 218.503 482.352 217.33 479.454 217.399C475.59 217.468 468 219.469 462.273 219.124C461.583 219.055 461.376 219.331 461.514 219.952C461.928 221.401 462.687 222.781 464.412 223.471Z"/>
</g>
<g fill="#141414" opacity="1" stroke="none"/>
</g>
</svg>
